<?xml version="1.0" encoding="UTF-8" standalone="no"?>
<svg
   xmlns:dc="http://purl.org/dc/elements/1.1/"
   xmlns:cc="http://creativecommons.org/ns#"
   xmlns:rdf="http://www.w3.org/1999/02/22-rdf-syntax-ns#"
   xmlns:svg="http://www.w3.org/2000/svg"
   xmlns="http://www.w3.org/2000/svg"
   xmlns:xlink="http://www.w3.org/1999/xlink"
   xmlns:sodipodi="http://sodipodi.sourceforge.net/DTD/sodipodi-0.dtd"
   xmlns:inkscape="http://www.inkscape.org/namespaces/inkscape"
   width="1090.7562"
   height="1164.4398"
   viewBox="0 0 288.59589 308.09138"
   version="1.1"
   id="svg8"
   inkscape:version="1.0.1 (3bc2e813f5, 2020-09-07)"
   sodipodi:docname="icon.svg"
   inkscape:export-filename="E:\EngineersRoom\formats\4info.png"
   inkscape:export-xdpi="105.49451"
   inkscape:export-ydpi="105.49451">
  <defs
     id="defs2">
    <linearGradient
       inkscape:collect="always"
       id="linearGradient863">
      <stop
         style="stop-color:#4400aa;stop-opacity:1"
         offset="0"
         id="stop859" />
      <stop
         style="stop-color:#aa00d4;stop-opacity:1"
         offset="1"
         id="stop861" />
    </linearGradient>
    <linearGradient
       inkscape:collect="always"
       xlink:href="#linearGradient863"
       id="linearGradient2246"
       gradientUnits="userSpaceOnUse"
       gradientTransform="translate(0,8.5280113)"
       x1="37.153618"
       y1="39.309525"
       x2="227.65363"
       y2="229.80952" />
    <linearGradient
       inkscape:collect="always"
       xlink:href="#linearGradient863"
       id="linearGradient2248"
       gradientUnits="userSpaceOnUse"
       x1="37.153618"
       y1="47.837536"
       x2="227.65363"
       y2="238.33754" />
    <clipPath
       clipPathUnits="userSpaceOnUse"
       id="clipPath3359">
      <circle
         style="opacity:1;fill:#4d4d4d;fill-opacity:1;stroke:none;stroke-width:4.99996;stroke-miterlimit:4;stroke-dasharray:none"
         id="circle3361"
         cx="263.07236"
         cy="274.08627"
         r="28.310192" />
    </clipPath>
    <clipPath
       clipPathUnits="userSpaceOnUse"
       id="clipPath3381">
      <rect
         style="opacity:0.5;fill:#4d4d4d;fill-opacity:1;stroke:none;stroke-width:4.99996;stroke-miterlimit:4;stroke-dasharray:none"
         id="rect3383"
         width="58.765095"
         height="58.765095"
         x="238.27745"
         y="293.1821"
         ry="14.455358" />
    </clipPath>
  </defs>
  <sodipodi:namedview
     id="base"
     pagecolor="#2c2c2c"
     bordercolor="#666666"
     borderopacity="1.0"
     inkscape:pageopacity="1"
     inkscape:pageshadow="2"
     inkscape:zoom="0.24748737"
     inkscape:cx="682.22859"
     inkscape:cy="429.13991"
     inkscape:document-units="px"
     inkscape:current-layer="layer1"
     inkscape:document-rotation="0"
     showgrid="false"
     showborder="true"
     inkscape:object-paths="true"
     inkscape:window-width="1366"
     inkscape:window-height="705"
     inkscape:window-x="-8"
     inkscape:window-y="-8"
     inkscape:window-maximized="1"
     inkscape:showpageshadow="false"
     borderlayer="true"
     units="px"
     fit-margin-top="0"
     fit-margin-left="0"
     fit-margin-right="0"
     fit-margin-bottom="0" />
  <metadata
     id="metadata5">
    <rdf:RDF>
      <cc:Work
         rdf:about="">
        <dc:format>image/svg+xml</dc:format>
        <dc:type
           rdf:resource="http://purl.org/dc/dcmitype/StillImage" />
        <dc:title></dc:title>
      </cc:Work>
    </rdf:RDF>
  </metadata>
  <g
     inkscape:label="Layer 1"
     inkscape:groupmode="layer"
     id="layer1"
     transform="translate(15.023769,34.685841)">
    <path
       style="fill:#ffffff;stroke:none;stroke-width:1"
       d="m 208.22005,182.92268 h -0.29443 c -3.28227,5.71931 -5.80699,12.78847 -10.89384,16.99059 -3.35177,2.76876 -7.07128,5.09667 -10.59941,7.60513 -1.23306,0.87667 -3.61528,1.94862 -4.23888,3.45169 -1.0673,2.57283 -0.17754,7.45003 -0.17754,10.25929 v 24.49117 H 57.178446 24.2025 15.369652 l -3.439533,-0.32278 -0.682452,-3.44509 V 232.21901 191.40039 41.627459 5.5186821 -3.2730198 l 0.682452,-3.1311644 3.439533,-0.3227182 H 24.2025 57.178446 182.01595 V 48.535224 c 1.90672,-2.340476 3.11329,-5.498895 4.59396,-8.163722 3.23635,-5.823875 6.37555,-11.714002 9.53859,-17.583405 2.76645,-5.133727 5.58147,-10.239193 8.32672,-15.3854788 1.15975,-2.1740617 2.90659,-4.4941292 3.55699,-6.9077658 1.18478,-4.3973893 0.18784,-10.4977004 0.18784,-15.0714894 0,-5.809337 0.41338,-11.569127 -3.83934,-15.985104 -3.97331,-4.126026 -8.69623,-3.796226 -13.82635,-3.796226 H 167.58898 66.894576 11.247667 c -7.1917342,0 -16.6963432,-1.987079 -22.349952,3.822381 -4.736059,4.866615 -3.854154,12.116567 -3.854154,18.470864 v 42.074574 173.950108 46.78442 c 0,6.6886 -0.966092,14.49249 4.420755,19.32165 4.4934413,4.02817 9.82547,3.28559 15.3059253,3.28559 H 34.507481 156.4007 189.08222 c 5.67599,0 11.26483,0.68135 15.57731,-4.09411 5.48431,-6.0735 3.56052,-16.77395 3.56052,-24.47893 v -61.8559 M 228.83003,4.9999999e-6 C 222.19566,0.9404037 220.62695,5.4555705 217.51692,11.170491 l -13.29403,24.49117 c -15.35796,28.220422 -30.52807,56.556705 -45.88602,84.777139 -4.60928,8.46955 -9.25565,16.92151 -13.79602,25.43314 -2.01478,3.77697 -5.18783,7.92163 -5.91888,12.24558 -0.82383,4.8706 -0.47963,10.134 -0.79644,15.07149 -0.72488,11.28791 -1.559,22.60754 -2.02331,33.91085 -0.22258,5.42039 -1.00429,13.67643 6.46594,13.48427 3.51812,-0.0904 6.92554,-3.54588 9.71612,-5.52998 6.6426,-4.7224 13.37852,-9.30224 20.02111,-14.02465 5.56823,-3.95909 13.02374,-7.61424 17.63507,-12.78157 3.43951,-3.85421 5.60679,-9.84011 8.10502,-14.43094 5.1204,-9.4087 10.23608,-18.82147 15.30937,-28.25905 11.78155,-21.91551 23.80363,-43.68471 35.54601,-65.623779 5.95334,-11.122759 12.0533,-22.155089 17.99869,-33.282872 2.19732,-4.112633 6.43738,-9.346208 6.92819,-14.129521 0.54616,-5.325574 -4.06752,-11.210677 -7.2556,-14.729556 C 257.50143,8.1116062 242.10255,-1.8811048 228.83003,4.9999999e-6 M 45.990174,20.414023 C 33.338309,22.521519 29.48336,41.989488 42.45704,47.258544 c 3.135072,1.273541 6.422659,0.962692 9.71613,0.962692 h 15.604687 55.058043 17.96011 c 3.42774,0 7.076,0.433619 10.30499,-1.048098 12.45991,-5.717746 8.9518,-24.805787 -3.82756,-26.762569 -5.77668,-0.884507 -12.12338,-0.134387 -17.96012,-0.134387 H 94.276383 62.183722 c -5.241702,0 -11.01455,-0.724687 -16.193548,0.137841 m 0.883291,52.431514 c -3.429795,0.486369 -6.59725,1.471668 -9.038945,4.290978 -6.283681,7.255662 -3.69301,19.155239 4.91695,22.74727 2.859188,1.192855 6.117038,0.773685 9.12727,0.773685 h 15.899117 55.646903 17.66569 c 3.44628,0 7.07305,0.43455 10.30498,-1.103685 11.12084,-5.292917 9.46115,-24.369656 -2.94428,-26.434449 -5.85116,-0.973681 -12.04917,-0.40693 -17.96011,-0.40693 H 98.987237 64.539144 c -5.764894,0 -11.951421,-0.676647 -17.665679,0.133131 m -1.766572,52.755243 c -12.503182,2.14235 -14.48321,20.87747 -3.238705,26.44921 5.006161,2.48052 11.704989,1.35768 17.076829,1.35768 h 26.792957 c 4.784156,0 10.064432,0.67351 14.721396,-0.67789 11.93995,-3.46488 12.08068,-21.90547 0.88328,-26.49254 -5.171034,-2.11849 -12.485805,-0.77462 -17.960106,-0.77462 H 58.061727 c -4.196482,0 -8.809579,-0.5724 -12.954834,0.13816 m 129.842787,60.77578 -8.83285,6.27978 -3.82756,2.2444 -4.71086,-3.07834 -10.5994,-5.75983 0.88328,-16.64143 c 7.52234,0.63834 15.39477,5.36356 21.19883,10.25645 2.1923,1.84814 4.72763,3.92142 5.88856,6.69897 M 61.30044,198.62215 c -1.793362,4.0426 -5.846168,7.60733 -6.901987,11.9316 -1.009889,4.13712 3.080306,7.21987 6.607557,5.78901 2.27122,-0.92155 3.743362,-3.55247 5.594135,-5.16104 -0.722529,1.98629 -1.929384,4.07966 -1.279883,6.27947 2.043626,6.92441 9.402863,1.42645 10.996013,-2.5116 h 0.294421 c 0,4.29695 1.845182,7.17246 6.182996,7.78254 2.364554,0.33252 4.397579,-1.40667 6.477416,-2.30249 2.548866,-1.0977 5.503448,-1.59946 8.243987,-1.67167 6.057265,-0.1595 12.274705,1.62615 18.254535,2.51224 2.50411,0.37112 5.77874,1.21231 8.24369,0.319 3.42773,-1.24245 4.10581,-7.04247 1.16536,-9.24478 -2.62866,-1.96871 -8.04821,-0.99221 -11.17562,-1.3869 -3.48455,-0.43989 -7.09366,-0.89895 -10.59941,-1.03521 -5.576172,-0.21635 -10.925336,-0.43238 -16.487964,0.31744 -0.266462,-3.23252 -2.451702,-6.47163 -5.299705,-7.69839 -1.08821,-0.46878 -2.477325,-0.16892 -3.471307,-0.78811 -1.707691,-1.06318 -2.014481,-2.85982 -4.18383,-3.4451 2.55858,-4.13743 4.720277,-9.70697 4.389925,-14.75749 -0.152514,-2.33483 -0.774933,-5.00249 -2.918076,-6.09988 -5.795524,-2.96877 -12.575609,4.13525 -16.188831,7.98852 -9.453499,10.08126 -18.047559,20.88563 -26.385182,32.02221 -2.299771,3.07144 -8.637927,9.13678 -4.478834,13.02019 4.172044,3.89535 7.941019,-0.52247 10.419221,-3.9145 7.088352,-9.70258 14.694314,-18.90593 22.501373,-27.94506 m 0.29443,-0.31399 -0.29443,0.31399 z"
       id="path861" />
  </g>
</svg>
