<svg xmlns="http://www.w3.org/2000/svg" id="svg" height="100%" width="100%" viewBox="142.97422580859129 39.874447705717 314.2857142857143 315.7142857142857" canvasWidth="220px" canvasHeight="221px" style="background: none; cursor: default;"><defs style="cursor: pointer;"><pattern id="minorGridPattern" patternUnits="userSpaceOnUse" width="10" height="10"><polyline id="minorGridLines" points="10 0, 0 0, 0 10" stroke="rgb(200,200,200)" fill="none" stroke-width="1.0714285714285714"/></pattern><pattern id="majorGridPattern" patternUnits="userSpaceOnUse" width="100" height="100"><polyline id="majorGridLines" points="100 0, 0 0, 0 100" stroke="rgb(200,200,200)" fill="none" stroke-width="2.142857142857143"/></pattern><linearGradient id="gradient1" x1="0%" y1="0%" x2="100%" y2="100%">
                        <stop offset="0%" style="stop-color: rgb(0, 230, 125);"/>
                        <stop offset="100%" style="stop-color: rgb(100, 23, 230);"/>
                    </linearGradient><linearGradient id="gradient2" x1="0%" y1="0%" x2="100%" y2="100%">
                        <stop offset="0%" style="stop-color: rgb(151, 49, 104);"/>
                        <stop offset="100%" style="stop-color: rgb(125, 65, 230);"/>
                    </linearGradient></defs><style style="cursor: pointer;">*{
transform-box: fill-box;
transform-origin: center;
}</style><text stroke="black" fill="white" stroke-width="0.5" scene="1" x="300.5" y="164.5" font-size="94.5" text-anchor="middle" dominant-baseline="middle" style="cursor: pointer;"><tspan x="300.5" style="font-family:Georgia" y="164.5"/></text><ellipse stroke="url(#gradient1)" fill="white" stroke-width="8" scene="1" cx="300" cy="200" rx="150" ry="150" style="cursor: pointer;"/><path stroke="url(#gradient1)" fill="url(#gradient1)" stroke-width="0.5" scene="1" style="cursor: pointer;" d="M&#10;350 120&#10;C&#10;340 80&#10;290 60&#10;260 80&#10;S&#10;221 117&#10;230 150&#10;S&#10;295.5 176.5&#10;314 201.5&#10;S&#10;302 251&#10;260 204&#10;S&#10;205.5 220.5&#10;223.5 239.5&#10;S&#10;310 280&#10;339.5 261&#10;S&#10;364 176.5&#10;323 160&#10;S&#10;283.5 158&#10;262 137.5&#10;S&#10;269.5 98&#10;290.5 100.5&#10;S&#10;315 140.5&#10;330 150&#10;S&#10;360 160&#10;350 120" transform="translate(13.095153808593752,29.73269653320313)&#10;rotate(0)&#10;scale(1.6240191004600038,1.1545686653781528)&#10;skewX(0)&#10;skewY(0)"/></svg>